<?xml version="1.0" encoding="UTF-8"?>
<svg width="400" height="520" version="1.1" viewBox="0 0 400 520" xmlns="http://www.w3.org/2000/svg">
 <g fill="none" stroke-linecap="round" stroke-linejoin="round">
  <path d="m139.86 79.31-34.399-67.616" stroke="#f90" stroke-width="14.226"/>
  <path d="m206.54 208.6-47.208-91.697" stroke="#f90" stroke-width="14.226"/>
  <path d="m139.86 79.31-34.399-67.616" stroke="#fede58" stroke-width="8.5353"/>
  <path d="m206.54 208.6-47.208-91.697" stroke="#fede58" stroke-width="8.5353"/>
  <path d="m139.86 79.31-34.399-67.616" stroke="#ffff3e" stroke-width="2.8451"/>
  <path d="m206.54 208.6-47.208-91.697" stroke="#ffff3e" stroke-width="2.8451"/>
  <path d="m87.2 133.88c22.086 18.315 78.992 35.915 138.88 43.268 82.73 10.157 155.06 18.242 158.14-6.7995 3.072-25.041-65.894-60.524-148.63-70.681-82.733-10.157-171.11 5.6451-174.22 31.041-3.1185 25.398 137.53 161.08 135.94 173.99l-17.442 142.05c-63.675-6.6416-117.57-3.297-119.4 11.556-1.9465 15.85 56.823 33.193 125.97 41.682 69.143 8.4909 130.37 5.8764 132.31-9.9706 1.8246-14.854-49.68-31.02-113.07-39.978l17.456-142.17c1.584-12.913 130.49-101.95 130.49-101.95" stroke="#0a50ff" stroke-width="21.338"/>
  <path d="m87.2 133.88c22.086 18.315 78.992 35.915 138.88 43.268 82.73 10.157 155.06 18.242 158.14-6.7995 3.072-25.041-65.894-60.524-148.63-70.681-82.733-10.157-171.11 5.6451-174.22 31.041-3.1185 25.398 137.53 161.08 135.94 173.99l-17.442 142.05c-63.675-6.6416-117.57-3.297-119.4 11.556-1.9465 15.85 56.823 33.193 125.97 41.682 69.143 8.4909 130.37 5.8764 132.31-9.9706 1.8246-14.854-49.68-31.02-113.07-39.978l17.456-142.17c1.584-12.913 130.49-101.95 130.49-101.95" stroke="#00a0c6" stroke-width="14.226"/>
  <path d="m87.2 133.88c22.086 18.315 78.992 35.915 138.88 43.268 82.73 10.157 155.06 18.242 158.14-6.7995 3.072-25.041-65.894-60.524-148.63-70.681-82.733-10.157-171.11 5.6451-174.22 31.041-3.1185 25.398 137.53 161.08 135.94 173.99l-17.442 142.05c-63.675-6.6416-117.57-3.297-119.4 11.556-1.9465 15.85 56.823 33.193 125.97 41.682 69.143 8.4909 130.37 5.8764 132.31-9.9706 1.8246-14.854-49.68-31.02-113.07-39.978l17.456-142.17c1.584-12.913 130.49-101.95 130.49-101.95" stroke="#8adbff" stroke-width="7.1128"/>
  <path d="m223.05 202.51c4.3008 0.3015 8.3362 1.4601 11.952 3.296 3.6162 1.8359 6.8131 4.3523 9.436 7.3674 2.6208 3.0151 4.6684 6.5311 5.9829 10.368 1.3145 3.837 1.901 7.9952 1.6006 12.296-0.30153 4.3017-1.4601 8.3381-3.2961 11.954-1.8349 3.6171-4.3535 6.813-7.3687 9.4367-3.0142 2.6196-6.5292 4.6652-10.368 5.9817-3.8351 1.3124-7.9944 1.8999-12.294 1.5995-4.3018-0.30152-8.3383-1.4601-11.954-3.295-3.6172-1.837-6.8152-4.3523-9.4349-7.3664-2.6218-3.0172-4.6684-6.5331-5.984-10.369-1.3145-3.8371-1.901-7.9953-1.5995-12.297 0.30049-4.3017 1.458-8.337 3.2951-11.953" stroke="#005447" stroke-width="19.916"/>
  <path d="m223.05 202.51c4.3008 0.3015 8.3362 1.4601 11.952 3.296 3.6162 1.8359 6.8131 4.3523 9.436 7.3674 2.6208 3.0151 4.6684 6.5311 5.9829 10.368 1.3145 3.837 1.901 7.9952 1.6006 12.296-0.30153 4.3017-1.4601 8.3381-3.2961 11.954-1.8349 3.6171-4.3535 6.813-7.3687 9.4367-3.0142 2.6196-6.5292 4.6652-10.368 5.9817-3.8351 1.3124-7.9944 1.8999-12.294 1.5995-4.3018-0.30152-8.3383-1.4601-11.954-3.295-3.6172-1.837-6.8152-4.3523-9.4349-7.3664-2.6218-3.0172-4.6684-6.5331-5.984-10.369-1.3145-3.8371-1.901-7.9953-1.5995-12.297 0.30049-4.3017 1.458-8.337 3.2951-11.953" stroke="#01ad4e" stroke-width="11.38"/>
  <path d="m223.05 202.51c4.3008 0.3015 8.3362 1.4601 11.952 3.296 3.6162 1.8359 6.8131 4.3523 9.436 7.3674 2.6208 3.0151 4.6684 6.5311 5.9829 10.368 1.3145 3.837 1.901 7.9952 1.6006 12.296-0.30153 4.3017-1.4601 8.3381-3.2961 11.954-1.8349 3.6171-4.3535 6.813-7.3687 9.4367-3.0142 2.6196-6.5292 4.6652-10.368 5.9817-3.8351 1.3124-7.9944 1.8999-12.294 1.5995-4.3018-0.30152-8.3383-1.4601-11.954-3.295-3.6172-1.837-6.8152-4.3523-9.4349-7.3664-2.6218-3.0172-4.6684-6.5331-5.984-10.369-1.3145-3.8371-1.901-7.9953-1.5995-12.297 0.30049-4.3017 1.458-8.337 3.2951-11.953" stroke="#a3c380" stroke-width="4.2677"/>
  <path d="m231.37 233.76a10.409 10.408 0 0 1-10.409 10.408 10.409 10.408 0 0 1-10.409-10.408 10.409 10.408 0 0 1 10.409-10.408 10.409 10.408 0 0 1 10.409 10.408" stroke="#ba0000" stroke-width="11.38"/>
  <path d="m231.37 233.76a10.409 10.408 0 0 1-10.409 10.408 10.409 10.408 0 0 1-10.409-10.408 10.409 10.408 0 0 1 10.409-10.408 10.409 10.408 0 0 1 10.409 10.408" stroke="#ff1a00" stroke-width="6.8283"/>
  <path d="m231.37 233.76a10.409 10.408 0 0 1-10.409 10.408 10.409 10.408 0 0 1-10.409-10.408 10.409 10.408 0 0 1 10.409-10.408 10.409 10.408 0 0 1 10.409 10.408" stroke="#e47564" stroke-width="2.2761"/>
 </g>
 <g fill="#7f0077" stroke="#7f0077" stroke-width="7.1128">
  <path d="m35.63 369.35c-3.3622 9.5503-4.3834 18.032-3.0638 25.445 0.93864 5.2775 2.8149 8.842 5.6308 10.691 2.8159 1.8483 7.032 2.2737 12.65 1.2742l30.154-5.3653c4.9565-0.88182 7.7384 0.37483 8.3435 3.7741 0.43782 2.4575-0.093 4.5392-1.5912 6.244-1.4983 1.6996-3.8299 2.8344-6.9949 3.3972l-31.454 5.5966c-5.2518 0.93449-9.5826 0.95721-12.991 0.0723-4.7428-1.2453-8.7379-3.7514-11.985-7.5172-3.2486-3.7668-5.352-8.3432-6.3113-13.732-1.2866-7.2322-0.60408-16.268 2.0487-27.109l-3.0359 0.54004-1.4095 0.24989c-4.0189 0.71454-6.3371-0.66291-6.9546-4.1334-0.38619-2.1684 0.11359-4.1499 1.5014-5.9456 1.3868-1.7946 3.2672-2.9046 5.6411-3.327l1.4653-0.26021 7.8633-1.3991c2.2914-6.0024 5.7423-12.005 10.35-18.009 5.8952-7.575 12.916-12.087 21.061-13.536 5.3572-0.95307 10.084-0.096 14.18 2.569 4.0963 2.6651 6.5994 6.5466 7.507 11.642 1.2928 7.2673-1.1038 13.438-7.188 18.511-4.1397 3.422-11.225 6.0241-21.258 7.8094zm5.7754-14.4 10.52-1.8721c9.0405-1.6088 13.135-4.8087 12.283-9.603-0.26952-1.5127-1.078-2.6434-2.4266-3.3879-1.3496-0.74552-2.9274-0.95823-4.7386-0.63606-2.7922 0.49667-5.6009 2.1498-8.4281 4.9574-2.8273 2.8107-5.2312 6.3225-7.2097 10.542z"/>
  <path d="m93.39 367.54c5.2353-0.93139 9.8387-0.0362 13.805 2.6857 3.9662 2.7208 6.4084 6.6446 7.3202 11.77 0.68772 3.8639 0.48532 7.859-0.60614 11.982-1.0915 4.1231-2.8438 7.5729-5.2549 10.347-1.615 1.8163-3.3756 3.1803-5.2797 4.0962-1.9041 0.91692-4.6622 1.6965-8.2712 2.3388-5.8879 1.0481-9.9853 1.0522-12.294 8e-3 -5.4294-2.4596-8.7214-6.9389-9.8779-13.44-1.2205-6.8584 0.19516-13.237 4.2502-19.137 4.0519-5.9012 9.4545-9.4512 16.209-10.652zm0.77239 11.792c-2.6682 0.47498-4.8667 2.2242-6.5963 5.2486s-2.311 6.1222-1.7461 9.2953c0.74451 4.1861 3.4582 5.8599 8.1442 5.0256 2.7374-0.48738 4.6953-1.71 5.8735-3.6698 1.9568-3.2113 2.6166-6.6023 1.9816-10.175-0.36555-2.0548-1.2567-3.6068-2.6703-4.658-1.4147-1.0512-3.0761-1.4074-4.9865-1.0666z"/>
  <path d="m150.97 400.82-15.727 2.7983c-4.5032 0.80129-8.4498-0.13526-11.842-2.8096-3.3932-2.6733-5.5389-6.5383-6.4383-11.594-1.202-6.751 0.0795-13.032 3.8434-18.844 3.7638-5.8093 8.7802-9.2715 15.053-10.389 4.2533-0.75688 7.9252-0.18379 11.017 1.7182 3.0896 1.903 4.9751 4.7622 5.6546 8.5797 0.47397 2.664 0.19827 4.9698-0.82815 6.9172-1.0264 1.9485-2.5794 3.105-4.6622 3.4757-3.3064 0.58754-5.2312-0.65465-5.7795-3.7297-0.0826-0.46467-0.15178-0.85807-0.21064-1.1823-0.0692-0.39341-0.13631-0.76824-0.20033-1.1265-0.44505-2.5019-1.9052-3.5345-4.3793-3.0936-2.3316 0.41407-4.2347 2.0362-5.7114 4.8604-1.4756 2.8251-1.9413 5.768-1.3971 8.8275 0.45435 2.5567 1.5561 4.2263 3.3064 5.0111 1.7492 0.78476 4.4929 0.84258 8.2258 0.17967l10.25-1.8246c4.6106-0.81988 7.2024 0.37791 7.7745 3.5944 0.38619 2.1684-0.13631 4.0229-1.5644 5.5635-1.4281 1.5427-3.5573 2.5639-6.3846 3.0668z"/>
  <path d="m188.68 370.48 10.754 11.664c1.3372 1.4394 2.0993 2.6826 2.2862 3.7286 0.29532 1.6614-0.13527 3.2846-1.2897 4.8665-1.1565 1.5819-2.6001 2.5298-4.3359 2.8386-1.519 0.27053-2.9842-0.30668-4.3927-1.7347l-0.82504-0.85807-15.929-16.554-3.389 16.08c-1.0935 5.1495-3.515 8.0572-7.2644 8.7242-1.551 0.2757-2.9429 0.0268-4.1769-0.74035-1.235-0.76928-1.9733-1.8421-2.218-3.2186-0.18689-1.0491-0.11358-2.3109 0.22098-3.7896l0.33457-1.5716 13.014-61.39 0.33456-1.5705c0.9407-4.3482 3.2372-6.8481 6.8865-7.4976 1.5169-0.27055 2.9099 6e-3 4.1738 0.82812 1.2649 0.82193 2.0229 1.9392 2.2748 3.3528 0.19414 1.0883 0.12599 2.3884-0.20239 3.9032l-0.33663 1.5757-7.79 36.601 10.567-11.209c2.1922-2.3254 4.1893-3.6502 5.9922-3.9713 1.5148-0.26951 2.8644-5e-3 4.0488 0.78991 1.1823 0.79612 1.9041 1.9144 2.1602 3.358 0.4306 2.4193-0.51011 4.8572-2.8211 7.3179l-1.0791 1.142z"/>
  <path d="m226.62 344.62 1.68-0.29944c4.5982-0.81781 7.1838 0.38101 7.7569 3.5975 0.39239 2.2046-0.11875 4.0663-1.5272 5.5852-1.4095 1.5189-3.545 2.5319-6.4042 3.0399l-3.959 0.70524-4.1005 19.083 6.0748-1.0811c4.5507-0.80954 7.1147 0.39342 7.6867 3.6099 0.39239 2.2046-0.10326 4.0642-1.4828 5.577-1.3816 1.5138-3.5078 2.5247-6.3815 3.0358l-9.7075 1.7275c-2.7312 0.48635-5.0071 0.23852-6.8276-0.73933-1.8236-0.97888-2.9264-2.5505-3.3116-4.7158-0.2375-1.3351-0.17967-2.8706 0.17967-4.6105l0.59788-2.5649 3.5511-16.882-0.81267 0.14456c-4.0902 0.72797-6.4146-0.47912-6.9742-3.6244-0.39859-2.2397 0.0991-4.1293 1.4973-5.6637s3.5522-2.5608 6.4641-3.0792l2.4958-0.444 1.5995-7.6266 0.33457-1.5726c0.97788-4.3213 3.2899-6.8068 6.9308-7.4552 1.4777-0.26227 2.8345 0.0104 4.0757 0.8178 1.2422 0.80644 1.9888 1.9154 2.2397 3.328 0.24472 1.3775 0.0898 3.1979-0.46158 5.4634z"/>
  <path d="m278.89 365.87 5.9643-1.0615c4.529-0.80541 7.0775 0.38205 7.6434 3.5624 0.39239 2.2046-0.11049 4.0735-1.5097 5.609-1.3982 1.5354-3.5191 2.5567-6.3619 3.0626l-6.9422 1.2339c-3.1102 0.55346-5.4429-0.28086-6.9928-2.5081-2.281 2.9088-4.686 4.5857-7.2159 5.0369l-6.1832 1.0997c-3.959 0.70422-7.4058-0.14353-10.342-2.5463-2.9347-2.4008-4.8068-5.894-5.6225-10.481-1.234-6.9317 0.0537-13.558 3.8609-19.879 3.8082-6.3204 8.7266-10.018 14.755-11.091 4.6188-0.82193 8.2805 0.1869 10.983 3.0203 1.3331-3.0275 3.4706-4.8046 6.4135-5.3281 1.5974-0.28395 3.0214-0.0154 4.274 0.80438 1.2495 0.81988 2.0074 1.9691 2.2697 3.4468 0.18071 1.0119 0.10429 2.2737-0.2282 3.7834l-0.33973 1.5685zm-19.643 3.7576 1.3558-0.24162c2.975-0.52972 4.7376-2.0879 5.288-4.6807l2.1427-10.04c0.29016-1.3155 0.36141-2.3894 0.21375-3.2196-0.17348-0.97269-0.80233-1.7358-1.8845-2.2892-1.0832-0.55037-2.2914-0.70835-3.6234-0.47086-2.6311 0.46776-4.9162 2.4575-6.8565 5.9652s-2.6187 6.9049-2.0342 10.186c0.66191 3.7173 2.4597 5.3126 5.3985 4.7901z"/>
  <path d="m305.8 361.08 6.1306-1.0914c4.5744-0.81366 7.1508 0.38722 7.7229 3.6037 0.39239 2.2046-0.10946 4.0663-1.5056 5.5811-1.3961 1.5169-3.5449 2.5319-6.4476 3.0482l-8.6233 1.5344c-3.1876 0.56688-5.8105 0.3645-7.8685-0.61232-2.06-0.97269-3.2889-2.5794-3.6864-4.819-0.21168-1.1916-0.10223-2.7745 0.32837-4.7519l5.0267-23.575 0.32527-1.6232c0.93451-4.373 3.2465-6.8904 6.9319-7.5461 1.5169-0.27054 2.915 3e-3 4.1965 0.8178 1.2794 0.8147 2.0466 1.9258 2.2976 3.3321 0.2055 1.1554 0.033 3.0089-0.51319 5.5635z"/>
  <path d="m332.24 356.37 5.6948-1.013c4.6343-0.82503 7.2386 0.37173 7.8096 3.5882 0.39239 2.2046-0.11152 4.0663-1.5138 5.5832-1.4023 1.5169-3.5594 2.534-6.4714 3.0523l-9.7612 1.7368c-2.6868 0.47809-4.9235 0.2251-6.7099-0.76411-1.7854-0.98921-2.8686-2.5505-3.2486-4.6858-0.1993-1.1224-7e-3 -3.0792 0.58135-5.8723l12.362-57.855 0.33662-1.5716c0.94485-4.3492 3.2476-6.8501 6.9081-7.5017 1.521-0.27053 2.9078 7e-3 4.1562 0.8302 1.2484 0.82296 2.0012 1.9402 2.2511 3.3497 0.19413 1.0883 0.14147 2.3677-0.15798 3.8391l-0.33664 1.5706z"/>
  <path d="m360.33 336.07-0.58343 2.6713c-0.94896 3.8515-2.881 6.0375-5.796 6.5558-1.4777 0.2633-2.8913-0.0166-4.243-0.83742-1.3537-0.81986-2.1468-1.8979-2.3853-3.234-0.22511-1.2628-3e-3 -3.0337 0.66913-5.3126l4.5796-15.893c1.14-3.8133 3.0255-5.9569 5.6525-6.4237 1.4033-0.24989 2.6899-4e-3 3.863 0.73829 1.171 0.74243 1.87 1.744 2.0941 3.0069 0.0578 0.32527 0.0795 1.047 0.0692 2.1674 7e-3 0.81884 0.065 1.5354 0.17349 2.1467 0.40477 2.2758 1.6728 4.4535 3.8072 6.531l3.8723 3.7245c3.9404 3.8061 6.2752 7.7495 7 11.828 0.80957 4.5506-0.21891 8.6551-3.0854 12.311-2.8686 3.6584-6.84 5.9384-11.919 6.8419l-11.335 2.0166c-4.6064 0.81987-7.1911-0.3614-7.7569-3.5428-0.39239-2.2035 0.11462-4.0735 1.5252-5.6121 1.4085-1.5365 3.5439-2.5598 6.4063-3.0699l6.2917-1.1193c5.1-0.90763 7.3284-3.1845 6.6789-6.8295-0.23646-1.3341-1.0006-2.8169-2.2914-4.4494z"/>
  <path d="m304.65 312.78c2.1034-0.37379 4.0199 0.0424 5.7496 1.2504 1.7296 1.2081 2.7829 2.8623 3.1577 4.9657 0.37381 2.1044-0.0424 4.0209-1.2505 5.7504-1.2082 1.7316-2.8624 2.7807-4.9658 3.1556-2.1045 0.37482-4.021-0.0402-5.7506-1.2484-1.7317-1.2081-2.7808-2.8623-3.1567-4.9677-0.37381-2.1023 0.0414-4.0178 1.2494-5.7484 1.2082-1.7306 2.8624-2.7828 4.9668-3.1576z"/>
 </g>
 <g fill="#f6f" stroke="#de00de" stroke-width="2.8451">
  <path d="m35.63 369.35c-3.3622 9.5503-4.3834 18.032-3.0638 25.445 0.93864 5.2775 2.8149 8.842 5.6308 10.691 2.8159 1.8483 7.032 2.2737 12.65 1.2742l30.154-5.3653c4.9565-0.88182 7.7384 0.37483 8.3435 3.7741 0.43782 2.4575-0.093 4.5392-1.5912 6.244-1.4983 1.6996-3.8299 2.8344-6.9949 3.3972l-31.454 5.5966c-5.2518 0.93449-9.5826 0.95721-12.991 0.0723-4.7428-1.2453-8.7379-3.7514-11.985-7.5172-3.2486-3.7668-5.352-8.3432-6.3113-13.732-1.2866-7.2322-0.60408-16.268 2.0487-27.109l-3.0359 0.54004-1.4095 0.24989c-4.0189 0.71454-6.3371-0.66291-6.9546-4.1334-0.38619-2.1684 0.11359-4.1499 1.5014-5.9456 1.3868-1.7946 3.2672-2.9046 5.6411-3.327l1.4653-0.26021 7.8633-1.3991c2.2914-6.0024 5.7423-12.005 10.35-18.009 5.8952-7.575 12.916-12.087 21.061-13.536 5.3572-0.95307 10.084-0.096 14.18 2.569 4.0963 2.6651 6.5994 6.5466 7.507 11.642 1.2928 7.2673-1.1038 13.438-7.188 18.511-4.1397 3.422-11.225 6.0241-21.258 7.8094zm5.7754-14.4 10.52-1.8721c9.0405-1.6088 13.135-4.8087 12.283-9.603-0.26952-1.5127-1.078-2.6434-2.4266-3.3879-1.3496-0.74552-2.9274-0.95823-4.7386-0.63606-2.7922 0.49667-5.6009 2.1498-8.4281 4.9574-2.8273 2.8107-5.2312 6.3225-7.2097 10.542z"/>
  <path d="m93.39 367.54c5.2353-0.93139 9.8387-0.0362 13.805 2.6857 3.9662 2.7208 6.4084 6.6446 7.3202 11.77 0.68772 3.8639 0.48532 7.859-0.60614 11.982-1.0915 4.1231-2.8438 7.5729-5.2549 10.347-1.615 1.8163-3.3756 3.1803-5.2797 4.0962-1.9041 0.91692-4.6622 1.6965-8.2712 2.3388-5.8879 1.0481-9.9853 1.0522-12.294 8e-3 -5.4294-2.4596-8.7214-6.9389-9.8779-13.44-1.2205-6.8584 0.19516-13.237 4.2502-19.137 4.0519-5.9012 9.4545-9.4512 16.209-10.652zm0.77239 11.792c-2.6682 0.47498-4.8667 2.2242-6.5963 5.2486s-2.311 6.1222-1.7461 9.2953c0.74451 4.1861 3.4582 5.8599 8.1442 5.0256 2.7374-0.48738 4.6953-1.71 5.8735-3.6698 1.9568-3.2113 2.6166-6.6023 1.9816-10.175-0.36555-2.0548-1.2567-3.6068-2.6703-4.658-1.4147-1.0512-3.0761-1.4074-4.9865-1.0666z"/>
  <path d="m150.97 400.82-15.727 2.7983c-4.5032 0.80129-8.4498-0.13526-11.842-2.8096-3.3932-2.6733-5.5389-6.5383-6.4383-11.594-1.202-6.751 0.0795-13.032 3.8434-18.844 3.7638-5.8093 8.7802-9.2715 15.053-10.389 4.2533-0.75688 7.9252-0.18379 11.017 1.7182 3.0896 1.903 4.9751 4.7622 5.6546 8.5797 0.47397 2.664 0.19827 4.9698-0.82815 6.9172-1.0264 1.9485-2.5794 3.105-4.6622 3.4757-3.3064 0.58754-5.2312-0.65465-5.7795-3.7297-0.0826-0.46467-0.15178-0.85807-0.21064-1.1823-0.0692-0.39341-0.13631-0.76824-0.20033-1.1265-0.44505-2.5019-1.9052-3.5345-4.3793-3.0936-2.3316 0.41407-4.2347 2.0362-5.7114 4.8604-1.4756 2.8251-1.9413 5.768-1.3971 8.8275 0.45435 2.5567 1.5561 4.2263 3.3064 5.0111 1.7492 0.78476 4.4929 0.84258 8.2258 0.17967l10.25-1.8246c4.6106-0.81988 7.2024 0.37791 7.7745 3.5944 0.38619 2.1684-0.13631 4.0229-1.5644 5.5635-1.4281 1.5427-3.5573 2.5639-6.3846 3.0668z"/>
  <path d="m188.68 370.48 10.754 11.664c1.3372 1.4394 2.0993 2.6826 2.2862 3.7286 0.29532 1.6614-0.13527 3.2846-1.2897 4.8665-1.1565 1.5819-2.6001 2.5298-4.3359 2.8386-1.519 0.27053-2.9842-0.30668-4.3927-1.7347l-0.82504-0.85807-15.929-16.554-3.389 16.08c-1.0935 5.1495-3.515 8.0572-7.2644 8.7242-1.551 0.2757-2.9429 0.0268-4.1769-0.74035-1.235-0.76928-1.9733-1.8421-2.218-3.2186-0.18689-1.0491-0.11358-2.3109 0.22098-3.7896l0.33457-1.5716 13.014-61.39 0.33456-1.5705c0.9407-4.3482 3.2372-6.8481 6.8865-7.4976 1.5169-0.27055 2.9099 6e-3 4.1738 0.82812 1.2649 0.82193 2.0229 1.9392 2.2748 3.3528 0.19414 1.0883 0.12599 2.3884-0.20239 3.9032l-0.33663 1.5757-7.79 36.601 10.567-11.209c2.1922-2.3254 4.1893-3.6502 5.9922-3.9713 1.5148-0.26951 2.8644-5e-3 4.0488 0.78991 1.1823 0.79612 1.9041 1.9144 2.1602 3.358 0.4306 2.4193-0.51011 4.8572-2.8211 7.3179l-1.0791 1.142z"/>
  <path d="m226.62 344.62 1.68-0.29944c4.5982-0.81781 7.1838 0.38101 7.7569 3.5975 0.39239 2.2046-0.11875 4.0663-1.5272 5.5852-1.4095 1.5189-3.545 2.5319-6.4042 3.0399l-3.959 0.70524-4.1005 19.083 6.0748-1.0811c4.5507-0.80954 7.1147 0.39342 7.6867 3.6099 0.39239 2.2046-0.10326 4.0642-1.4828 5.577-1.3816 1.5138-3.5078 2.5247-6.3815 3.0358l-9.7075 1.7275c-2.7312 0.48635-5.0071 0.23852-6.8276-0.73933-1.8236-0.97888-2.9264-2.5505-3.3116-4.7158-0.2375-1.3351-0.17967-2.8706 0.17967-4.6105l0.59788-2.5649 3.5511-16.882-0.81267 0.14456c-4.0902 0.72797-6.4146-0.47912-6.9742-3.6244-0.39859-2.2397 0.0991-4.1293 1.4973-5.6637s3.5522-2.5608 6.4641-3.0792l2.4958-0.444 1.5995-7.6266 0.33457-1.5726c0.97788-4.3213 3.2899-6.8068 6.9308-7.4552 1.4777-0.26227 2.8345 0.0104 4.0757 0.8178 1.2422 0.80644 1.9888 1.9154 2.2397 3.328 0.24472 1.3775 0.0898 3.1979-0.46158 5.4634z"/>
  <path d="m278.89 365.87 5.9643-1.0615c4.529-0.80541 7.0775 0.38205 7.6434 3.5624 0.39239 2.2046-0.11049 4.0735-1.5097 5.609-1.3982 1.5354-3.5191 2.5567-6.3619 3.0626l-6.9422 1.2339c-3.1102 0.55346-5.4429-0.28086-6.9928-2.5081-2.281 2.9088-4.686 4.5857-7.2159 5.0369l-6.1832 1.0997c-3.959 0.70422-7.4058-0.14353-10.342-2.5463-2.9347-2.4008-4.8068-5.894-5.6225-10.481-1.234-6.9317 0.0537-13.558 3.8609-19.879 3.8082-6.3204 8.7266-10.018 14.755-11.091 4.6188-0.82193 8.2805 0.1869 10.983 3.0203 1.3331-3.0275 3.4706-4.8046 6.4135-5.3281 1.5974-0.28395 3.0214-0.0154 4.274 0.80438 1.2495 0.81988 2.0074 1.9691 2.2697 3.4468 0.18071 1.0119 0.10429 2.2737-0.2282 3.7834l-0.33973 1.5685zm-19.643 3.7576 1.3558-0.24162c2.975-0.52972 4.7376-2.0879 5.288-4.6807l2.1427-10.04c0.29016-1.3155 0.36141-2.3894 0.21375-3.2196-0.17348-0.97269-0.80233-1.7358-1.8845-2.2892-1.0832-0.55037-2.2914-0.70835-3.6234-0.47086-2.6311 0.46776-4.9162 2.4575-6.8565 5.9652s-2.6187 6.9049-2.0342 10.186c0.66191 3.7173 2.4597 5.3126 5.3985 4.7901z"/>
  <path d="m305.8 361.08 6.1306-1.0914c4.5744-0.81366 7.1508 0.38722 7.7229 3.6037 0.39239 2.2046-0.10946 4.0663-1.5056 5.5811-1.3961 1.5169-3.5449 2.5319-6.4476 3.0482l-8.6233 1.5344c-3.1876 0.56688-5.8105 0.3645-7.8685-0.61232-2.06-0.97269-3.2889-2.5794-3.6864-4.819-0.21168-1.1916-0.10223-2.7745 0.32837-4.7519l5.0267-23.575 0.32527-1.6232c0.93451-4.373 3.2465-6.8904 6.9319-7.5461 1.5169-0.27054 2.915 3e-3 4.1965 0.8178 1.2794 0.8147 2.0466 1.9258 2.2976 3.3321 0.2055 1.1554 0.033 3.0089-0.51319 5.5635z"/>
  <path d="m332.24 356.37 5.6948-1.013c4.6343-0.82503 7.2386 0.37173 7.8096 3.5882 0.39239 2.2046-0.11152 4.0663-1.5138 5.5832-1.4023 1.5169-3.5594 2.534-6.4714 3.0523l-9.7612 1.7368c-2.6868 0.47809-4.9235 0.2251-6.7099-0.76411-1.7854-0.98921-2.8686-2.5505-3.2486-4.6858-0.1993-1.1224-7e-3 -3.0792 0.58135-5.8723l12.362-57.855 0.33662-1.5716c0.94485-4.3492 3.2476-6.8501 6.9081-7.5017 1.521-0.27053 2.9078 7e-3 4.1562 0.8302 1.2484 0.82296 2.0012 1.9402 2.2511 3.3497 0.19413 1.0883 0.14147 2.3677-0.15798 3.8391l-0.33664 1.5706z"/>
  <path d="m360.33 336.07-0.58343 2.6713c-0.94896 3.8515-2.881 6.0375-5.796 6.5558-1.4777 0.2633-2.8913-0.0166-4.243-0.83742-1.3537-0.81986-2.1468-1.8979-2.3853-3.234-0.22511-1.2628-3e-3 -3.0337 0.66913-5.3126l4.5796-15.893c1.14-3.8133 3.0255-5.9569 5.6525-6.4237 1.4033-0.24989 2.6899-4e-3 3.863 0.73829 1.171 0.74243 1.87 1.744 2.0941 3.0069 0.0578 0.32527 0.0795 1.047 0.0692 2.1674 7e-3 0.81884 0.065 1.5354 0.17349 2.1467 0.40477 2.2758 1.6728 4.4535 3.8072 6.531l3.8723 3.7245c3.9404 3.8061 6.2752 7.7495 7 11.828 0.80957 4.5506-0.21891 8.6551-3.0854 12.311-2.8686 3.6584-6.84 5.9384-11.919 6.8419l-11.335 2.0166c-4.6064 0.81987-7.1911-0.3614-7.7569-3.5428-0.39239-2.2035 0.11462-4.0735 1.5252-5.6121 1.4085-1.5365 3.5439-2.5598 6.4063-3.0699l6.2917-1.1193c5.1-0.90763 7.3284-3.1845 6.6789-6.8295-0.23646-1.3341-1.0006-2.8169-2.2914-4.4494z"/>
  <path d="m304.65 312.78c2.1034-0.37379 4.0199 0.0424 5.7496 1.2504 1.7296 1.2081 2.7829 2.8623 3.1577 4.9657 0.37381 2.1044-0.0424 4.0209-1.2505 5.7504-1.2082 1.7316-2.8624 2.7807-4.9658 3.1556-2.1045 0.37482-4.021-0.0402-5.7506-1.2484-1.7317-1.2081-2.7808-2.8623-3.1567-4.9677-0.37381-2.1023 0.0414-4.0178 1.2494-5.7484 1.2082-1.7306 2.8624-2.7828 4.9668-3.1576z"/>
 </g>
</svg>
